<svg width="56" height="60" viewBox="0 0 56 60" fill="none" xmlns="http://www.w3.org/2000/svg">
<path d="M27.9469 47.6457C41.1039 47.6457 51.7697 36.9798 51.7697 23.8228C51.7697 10.6658 41.1039 0 27.9469 0C14.7899 0 4.12402 10.6658 4.12402 23.8228C4.12402 36.9798 14.7899 47.6457 27.9469 47.6457Z" fill="white"/>
<path d="M8.64766 37.7598L0.450806 51.9685L10.0177 51.4606L14.3642 60L21.9469 46.8543C16.5138 45.4488 11.8484 42.1772 8.64766 37.7598ZM47.2933 37.689C44.1162 42.1181 39.4508 45.4016 34.0295 46.8307L41.6358 60L45.9823 51.4606L55.5492 51.9685L47.2933 37.689Z" fill="white"/>
<path d="M27.9469 41.0906C37.4836 41.0906 45.2146 33.3596 45.2146 23.8229C45.2146 14.2862 37.4836 6.55518 27.9469 6.55518C18.4102 6.55518 10.6791 14.2862 10.6791 23.8229C10.6791 33.3596 18.4102 41.0906 27.9469 41.0906Z" fill="#454545"/>
<path d="M39.7815 21.9567C40.313 21.437 40.0178 20.5276 39.2855 20.4213L32.4705 19.4291C32.1752 19.3819 31.9272 19.2047 31.7973 18.9331L28.75 12.7559C28.4193 12.0827 27.4626 12.0827 27.1319 12.7559L24.0965 18.9331C23.9666 19.1929 23.7067 19.3819 23.4233 19.4291L16.6083 20.4213C15.876 20.5276 15.5808 21.437 16.1123 21.9567L21.0374 26.7638C21.25 26.9764 21.3445 27.2716 21.2973 27.5551L20.1398 34.3346C20.0099 35.0669 20.7894 35.6339 21.4508 35.2795L27.5453 32.0787C27.8052 31.937 28.1241 31.937 28.3839 32.0787L34.4784 35.2795C35.1398 35.622 35.9075 35.0669 35.7894 34.3346L34.6201 27.5551C34.5729 27.2598 34.6674 26.9646 34.88 26.7638L39.7815 21.9567Z" fill="white"/>
</svg>
