<svg width="38" height="60" viewBox="0 0 38 60" fill="none" xmlns="http://www.w3.org/2000/svg">
<path d="M0.834839 41.8348C0.834839 51.8672 8.96764 60 19 60C29.0324 60 37.1652 51.8672 37.1652 41.8348C37.1652 31.8025 29.0324 23.6697 19 23.6697C8.96764 23.6697 0.834839 31.8025 0.834839 41.8348ZM17.2425 33.221V30.9356H20.7578V33.2288C23.2322 33.6364 25.126 35.7894 25.126 38.3775H21.6107C21.6107 37.4379 20.8464 36.6735 19.9067 36.6735H18.0499C17.1116 36.6735 16.348 37.4371 16.348 38.3754C16.348 39.3139 17.1116 40.0773 18.0499 40.0773H19.9502C22.827 40.0773 25.1674 42.4177 25.1674 45.2944C25.1674 47.8965 23.2524 50.0596 20.7577 50.4489V52.7343H17.2423V50.4535C14.7651 50.0791 12.8601 47.9358 12.8601 45.3557H16.3755C16.3755 46.2603 17.1115 46.9963 18.0161 46.9963H19.9502C20.8885 46.9963 21.6521 46.2327 21.6521 45.2944C21.6521 44.356 20.8885 43.5925 19.9502 43.5925H18.0499C15.1731 43.5925 12.8327 41.2521 12.8327 38.3753C12.8327 35.7734 14.7478 33.6104 17.2425 33.221ZM22.5372 20.4424C24.222 20.7185 25.8678 21.1942 27.44 21.8596C29.5019 22.7303 31.4156 23.9167 33.1125 25.3761V12.0062H36.6424V8.81747L27.8248 0L19.0073 8.81758V12.0063H22.5372V20.4424ZM4.88741 25.3761C6.58429 23.9167 8.49801 22.7303 10.5598 21.8596C12.132 21.1942 13.7779 20.7184 15.4627 20.4424V17.6301H18.9926V14.4414L10.175 5.6238L1.35745 14.4414V17.6301H4.88741V25.3761Z" fill="white"/>
</svg>
