<svg width="54" height="38" viewBox="0 0 54 38" fill="none" xmlns="http://www.w3.org/2000/svg">
<path d="M53.0812 18.25L48.9375 8.875C48.7924 8.54252 48.554 8.25928 48.2511 8.05959C47.9483 7.85991 47.594 7.75237 47.2313 7.75H37.2L37.8 2.33125C37.8295 2.0682 37.803 1.80188 37.7222 1.54981C37.6414 1.29773 37.5082 1.06562 37.3312 0.86875C37.1559 0.674514 36.9419 0.519117 36.703 0.412553C36.464 0.30599 36.2054 0.250618 35.9437 0.25H10.125C9.62772 0.25 9.15081 0.447544 8.79917 0.799175C8.44754 1.15081 8.25 1.62772 8.25 2.125C8.25 2.62228 8.44754 3.09919 8.79917 3.45082C9.15081 3.80246 9.62772 4 10.125 4H19.5C19.9973 4 20.4742 4.19754 20.8258 4.54917C21.1775 4.90081 21.375 5.37772 21.375 5.875C21.375 6.37228 21.1775 6.84919 20.8258 7.20082C20.4742 7.55245 19.9973 7.75 19.5 7.75H6.375C5.87772 7.75 5.40081 7.94754 5.04918 8.29917C4.69754 8.65081 4.5 9.12772 4.5 9.625C4.5 10.1223 4.69754 10.5992 5.04918 10.9508C5.40081 11.3025 5.87772 11.5 6.375 11.5H25.125C25.6223 11.5 26.0992 11.6975 26.4508 12.0492C26.8025 12.4008 27 12.8777 27 13.375C27 13.8723 26.8025 14.3492 26.4508 14.7008C26.0992 15.0525 25.6223 15.25 25.125 15.25H12C11.5027 15.25 11.0258 15.4475 10.6742 15.7992C10.3225 16.1508 10.125 16.6277 10.125 17.125C10.125 17.6223 10.3225 18.0992 10.6742 18.4508C11.0258 18.8025 11.5027 19 12 19H19.5C19.9973 19 20.4742 19.1975 20.8258 19.5492C21.1775 19.9008 21.375 20.3777 21.375 20.875C21.375 21.3723 21.1775 21.8492 20.8258 22.2008C20.4742 22.5525 19.9973 22.75 19.5 22.75H4.5C4.00272 22.75 3.52581 22.9475 3.17417 23.2992C2.82254 23.6508 2.625 24.1277 2.625 24.625C2.625 25.1223 2.82254 25.5992 3.17417 25.9508C3.52581 26.3025 4.00272 26.5 4.5 26.5H8.25C8.74728 26.5 9.22419 26.6975 9.57582 27.0492C9.92745 27.4008 10.125 27.8777 10.125 28.375C10.125 28.8723 9.92745 29.3492 9.57582 29.7008C9.22419 30.0525 8.74728 30.25 8.25 30.25H6.375C5.87772 30.25 5.40081 30.4475 5.04918 30.7992C4.69754 31.1508 4.5 31.6277 4.5 32.125C4.5 32.6223 4.69754 33.0992 5.04918 33.4508C5.40081 33.8025 5.87772 34 6.375 34H11.7187C11.9212 34.7908 12.3066 35.5229 12.8437 36.1375C13.299 36.6465 13.8568 37.0533 14.4805 37.3312C15.1042 37.6091 15.7797 37.7518 16.4625 37.75C17.618 37.717 18.738 37.3435 19.6819 36.6763C20.6259 36.0092 21.3519 35.0782 21.7687 34H36.0938C36.2962 34.7908 36.6816 35.5229 37.2188 36.1375C37.674 36.6465 38.2318 37.0533 38.8555 37.3312C39.4792 37.6091 40.1547 37.7518 40.8375 37.75C41.993 37.717 43.1129 37.3435 44.0569 36.6763C45.0009 36.0092 45.7269 35.0782 46.1437 34H49.8937C50.3573 34.0028 50.8054 33.8338 51.1517 33.5257C51.4979 33.2175 51.7178 32.792 51.7687 32.3312L53.2125 19.2062C53.2639 18.8815 53.2182 18.5489 53.0812 18.25ZM16.4625 34C16.307 34.0067 16.152 33.9782 16.0092 33.9165C15.8663 33.8548 15.7392 33.7615 15.6375 33.6437C15.4903 33.4617 15.3826 33.2509 15.3213 33.025C15.26 32.799 15.2463 32.5628 15.2812 32.3312C15.3291 31.8048 15.5564 31.3108 15.9251 30.9319C16.2937 30.553 16.7813 30.3123 17.3062 30.25C17.4617 30.2433 17.6167 30.2718 17.7596 30.3335C17.9025 30.3952 18.0295 30.4885 18.1312 30.6062C18.2784 30.7883 18.3861 30.9991 18.4474 31.225C18.5088 31.451 18.5224 31.6872 18.4875 31.9187C18.4396 32.4452 18.2123 32.9392 17.8437 33.3181C17.475 33.697 16.9874 33.9377 16.4625 34ZM40.8375 34C40.682 34.0067 40.527 33.9782 40.3842 33.9165C40.2413 33.8548 40.1142 33.7615 40.0125 33.6437C39.8653 33.4617 39.7576 33.2509 39.6963 33.025C39.635 32.799 39.6213 32.5628 39.6562 32.3312C39.7041 31.8048 39.9314 31.3108 40.3001 30.9319C40.6687 30.553 41.1563 30.3123 41.6812 30.25C41.8367 30.2433 41.9917 30.2718 42.1346 30.3335C42.2775 30.3952 42.4045 30.4885 42.5062 30.6062C42.6534 30.7883 42.7611 30.9991 42.8224 31.225C42.8838 31.451 42.8974 31.6872 42.8625 31.9187C42.8146 32.4452 42.5873 32.9392 42.2187 33.3181C41.85 33.697 41.3624 33.9377 40.8375 34ZM49.275 20.875H40.9875C40.7259 20.8744 40.4672 20.819 40.2283 20.7124C39.9893 20.6059 39.7753 20.4505 39.6 20.2562C39.4231 20.0594 39.2898 19.8273 39.209 19.5752C39.1282 19.3231 39.1017 19.0568 39.1312 18.7937L39.75 13.1687C39.8053 12.7114 40.027 12.2904 40.3728 11.9861C40.7186 11.6818 41.1643 11.5154 41.625 11.5187H45.9937L49.5 19.3L49.275 20.875Z" fill="white"/>
<path d="M4.5 19C4.99728 19 5.47419 18.8025 5.82582 18.4508C6.17746 18.0992 6.375 17.6223 6.375 17.125C6.375 16.6277 6.17746 16.1508 5.82582 15.7992C5.47419 15.4475 4.99728 15.25 4.5 15.25H2.625C2.12772 15.25 1.65081 15.4475 1.29917 15.7992C0.947544 16.1508 0.75 16.6277 0.75 17.125C0.75 17.6223 0.947544 18.0992 1.29917 18.4508C1.65081 18.8025 2.12772 19 2.625 19H4.5Z" fill="white"/>
</svg>
